<?xml version="1.0" encoding="utf-8"?>
<!-- Generator: Adobe Illustrator 19.2.1, SVG Export Plug-In . SVG Version: 6.00 Build 0)  -->
<svg version="1.1" id="Layer_1" xmlns="http://www.w3.org/2000/svg" xmlns:xlink="http://www.w3.org/1999/xlink" x="0px" y="0px"
	 viewBox="0 0 280 105" style="enable-background:new 0 0 280 105;" xml:space="preserve">
<style type="text/css">
	.st0{fill:#FFFFFF;}
	.st1{fill-rule:evenodd;clip-rule:evenodd;fill:#FFFFFF;}
</style>
<g>
	<g>
		<g>
			<path class="st0" d="M41.7,51.6l-2.2,7.1c-1,0.2-2,0.4-3,0.5c-1,0.1-1.9,0.2-2.9,0.2c-2,0-3.9-0.2-5.6-0.6
				c-1.8-0.4-3.3-1-4.8-1.7c-1.6-0.8-2.8-1.8-3.6-3c-0.9-1.2-1.3-2.5-1.3-3.8c0-1.5,0.4-2.8,1.1-4.1c0.7-1.3,1.8-2.4,3.3-3.4
				c1.7-1.2,3.8-2.2,6.3-2.8c2.5-0.7,5.1-1,8-1c1.5,0,2.9,0.1,4.3,0.3c1.4,0.2,2.7,0.5,3.9,0.8l-2,6.5c-1.1-0.4-2.2-0.7-3.2-0.9
				c-1.1-0.2-2.1-0.3-3.1-0.3c-2,0-3.7,0.4-5,1.2c-1.3,0.8-1.9,1.8-1.9,3c0,1,0.5,1.8,1.5,2.4c1,0.6,2.4,0.9,4.1,0.9
				c0.9,0,1.9-0.1,3-0.3C39.7,52.3,40.7,52,41.7,51.6L41.7,51.6z M45.4,58.8l5.9-19.5H63l-2,6.7h6.3l2-6.7H81l-6,19.5H63.4l2.2-7
				h-6.3l-2.2,7H45.4L45.4,58.8z M81,58.8h11.6l2.2-7.1l3.5,7.1h11.9l-4.6-7.5c2.5-0.3,4.5-1,5.8-2.1c1.4-1.1,2.1-2.4,2.1-4
				c0-1.9-1.2-3.4-3.6-4.4c-2.4-1-5.9-1.5-10.6-1.5H86.9L81,58.8L81,58.8z M95.9,47.9l1.2-3.8h0.7c1.5,0,2.5,0.1,3.2,0.4
				c0.7,0.3,1,0.7,1,1.3c0,0.7-0.4,1.3-1.3,1.6c-0.8,0.4-2.1,0.5-3.9,0.5H95.9L95.9,47.9z M134.1,45.3c-1.8,0-3.3,0.4-4.6,1.2
				c-1.2,0.8-1.8,1.8-1.8,2.9c0,1,0.5,1.9,1.5,2.5c1,0.6,2.3,0.9,3.9,0.9c1.8,0,3.3-0.4,4.5-1.2c1.2-0.8,1.8-1.8,1.8-3
				c0-1-0.5-1.8-1.5-2.4C136.9,45.6,135.6,45.3,134.1,45.3L134.1,45.3z M132.3,59.3c-2.3,0-4.4-0.2-6.3-0.6c-1.9-0.4-3.5-1-5-1.7
				c-1.5-0.8-2.7-1.8-3.6-3c-0.9-1.2-1.3-2.5-1.3-3.8c0-1.5,0.4-2.8,1.1-4.1c0.7-1.3,1.8-2.4,3.3-3.4c1.7-1.2,3.8-2.2,6.3-2.8
				c2.5-0.7,5.1-1,8-1c4.8,0,8.7,0.8,11.7,2.5c3,1.7,4.5,3.9,4.5,6.6c0,1.5-0.4,2.8-1.1,4.1c-0.7,1.3-1.8,2.4-3.3,3.4
				c-1.8,1.3-3.8,2.2-6.3,2.9C137.9,59,135.2,59.3,132.3,59.3L132.3,59.3z M151.1,58.8l9.6-19.5h11.7l1.1,6.3
				c0.1,0.7,0.2,1.4,0.2,2.1c0.1,0.7,0.1,1.4,0.1,2.2l7.7-10.6h11.7l-1.5,19.5h-10.7l1.4-10.4c-0.3,0.5-0.6,1-0.9,1.5
				c-0.3,0.5-0.7,1.1-1.2,1.6l-5.6,7.3h-6.6l-1.8-10.1c-0.1,0.5-0.2,1-0.4,1.5c-0.2,0.5-0.4,1.1-0.7,1.6l-3.2,7H151.1L151.1,58.8z
				 M215.1,45.3c-1.8,0-3.4,0.4-4.6,1.2c-1.2,0.8-1.8,1.8-1.8,2.9c0,1,0.5,1.9,1.5,2.5c1,0.6,2.3,0.9,3.9,0.9c1.8,0,3.3-0.4,4.5-1.2
				c1.2-0.8,1.8-1.8,1.8-3c0-1-0.5-1.8-1.5-2.4C217.9,45.6,216.6,45.3,215.1,45.3L215.1,45.3z M213.3,59.3c-2.3,0-4.4-0.2-6.3-0.6
				c-1.9-0.4-3.5-1-5-1.7c-1.6-0.8-2.8-1.8-3.6-3c-0.9-1.2-1.3-2.5-1.3-3.8c0-1.5,0.4-2.8,1.1-4.1c0.7-1.3,1.8-2.4,3.3-3.4
				c1.7-1.2,3.8-2.2,6.3-2.8c2.5-0.7,5.1-1,8-1c4.8,0,8.7,0.8,11.7,2.5c3,1.7,4.5,3.9,4.5,6.6c0,1.5-0.4,2.8-1.1,4.1
				c-0.7,1.3-1.8,2.4-3.3,3.4c-1.8,1.3-3.8,2.2-6.3,2.9C218.9,59,216.2,59.3,213.3,59.3L213.3,59.3z M231.7,55.7
				c2.2,1.2,4.5,2,6.9,2.6c2.4,0.6,4.9,0.9,7.4,0.9c4,0,7.3-0.7,9.9-2c2.6-1.4,3.9-3.1,3.9-5.1c0-1.3-0.5-2.4-1.6-3.2
				c-1-0.8-2.8-1.6-5.3-2.3c-0.3-0.1-0.7-0.2-1.2-0.3c-1.9-0.5-2.9-1-2.9-1.4c0-0.3,0.2-0.5,0.5-0.6c0.3-0.2,0.8-0.2,1.3-0.2
				c0.9,0,1.9,0.2,2.9,0.5c1.1,0.3,2.2,0.9,3.5,1.5l4.5-4.8c-1.6-0.8-3.4-1.4-5.3-1.8c-1.9-0.4-4-0.6-6.3-0.6
				c-3.9,0-7.1,0.6-9.6,1.9c-2.4,1.3-3.7,2.9-3.7,5c0,1.3,0.6,2.4,1.9,3.3c1.3,0.9,3.3,1.7,6,2.4c0.2,0.1,0.5,0.1,0.8,0.2
				c1.7,0.4,2.5,0.8,2.5,1.1c0,0.2-0.2,0.4-0.6,0.6c-0.4,0.1-0.9,0.2-1.5,0.2c-1.5,0-2.9-0.3-4.4-0.8c-1.5-0.5-2.8-1.2-4.1-2.2
				L231.7,55.7z"/>
		</g>
	</g>
</g>
<g>
	<g>
		<g>
			<polygon class="st1" points="134.9,52.4 133.6,49.8 132.3,52.4 132.4,69.1 134.9,69.1 			"/>
		</g>
	</g>
</g>
<g>
	<g>
		<g>
			<polygon class="st1" points="137.1,47.8 134.5,49.1 137,50.3 157.4,50.3 157.4,47.8 			"/>
		</g>
	</g>
</g>
<g>
	<g>
		<g>
			<polygon class="st1" points="130.2,47.8 132.8,49.1 130.2,50.3 109.9,50.3 109.9,47.8 			"/>
		</g>
	</g>
</g>
<g>
	<g>
		<g>
			<polygon class="st1" points="134.9,45.6 133.6,48.2 132.3,45.6 132.4,28.9 134.9,28.9 			"/>
		</g>
	</g>
</g>
<g>
	<g>
		<path class="st0" d="M164.4,73.7l-0.6,3.3c-0.3,0.1-0.6,0.2-0.8,0.2c-0.3,0-0.5,0.1-0.8,0.1c-0.6,0-1.1-0.1-1.6-0.3
			c-0.5-0.2-0.9-0.4-1.3-0.8c-0.4-0.4-0.8-0.8-1-1.4c-0.2-0.6-0.4-1.1-0.4-1.8c0-0.7,0.1-1.3,0.3-1.9c0.2-0.6,0.5-1.1,0.9-1.6
			c0.5-0.6,1.1-1,1.8-1.3c0.7-0.3,1.4-0.5,2.2-0.5c0.4,0,0.8,0,1.2,0.1c0.4,0.1,0.7,0.2,1.1,0.4l-0.6,3c-0.3-0.2-0.6-0.3-0.9-0.4
			c-0.3-0.1-0.6-0.1-0.9-0.1c-0.6,0-1,0.2-1.4,0.5c-0.4,0.4-0.5,0.8-0.5,1.4c0,0.5,0.1,0.8,0.4,1.1c0.3,0.3,0.7,0.4,1.1,0.4
			c0.3,0,0.5,0,0.8-0.1C163.9,74.1,164.2,73.9,164.4,73.7z"/>
	</g>
	<g>
		<path class="st0" d="M170.5,77.3c-0.6,0-1.2-0.1-1.8-0.3c-0.5-0.2-1-0.4-1.4-0.8c-0.4-0.4-0.8-0.8-1-1.4c-0.2-0.6-0.4-1.1-0.4-1.8
			c0-0.7,0.1-1.3,0.3-1.9c0.2-0.6,0.5-1.1,0.9-1.6c0.5-0.6,1.1-1,1.8-1.3c0.7-0.3,1.4-0.5,2.2-0.5c1.4,0,2.5,0.4,3.3,1.2
			c0.8,0.8,1.3,1.8,1.3,3.1c0,0.7-0.1,1.3-0.3,1.9c-0.2,0.6-0.5,1.1-0.9,1.6c-0.5,0.6-1.1,1-1.8,1.3
			C172.1,77.2,171.3,77.3,170.5,77.3z M171,70.8c-0.5,0-0.9,0.2-1.3,0.5c-0.3,0.4-0.5,0.8-0.5,1.4c0,0.5,0.1,0.9,0.4,1.1
			c0.3,0.3,0.6,0.4,1.1,0.4c0.5,0,0.9-0.2,1.3-0.6c0.3-0.4,0.5-0.8,0.5-1.4c0-0.4-0.1-0.8-0.4-1.1C171.8,71,171.4,70.8,171,70.8z"/>
	</g>
	<g>
		<path class="st0" d="M176.2,77.1l1.7-9h3.3l-1.2,6.2h2.8l-0.5,2.8H176.2z"/>
	</g>
	<g>
		<path class="st0" d="M183.2,77.1l1.7-9h6.2l-0.4,2.4h-2.9l-0.2,0.9h2.8l-0.4,2.3H187l-0.2,1h3.2l-0.5,2.4H183.2z M187,67.1
			l1.4-2.2h2l-2.3,2.2H187z"/>
	</g>
	<g>
		<path class="st0" d="M199.8,76c-0.6,0.4-1.3,0.8-1.9,1c-0.6,0.2-1.3,0.3-2,0.3c-1.4,0-2.4-0.4-3.3-1.2c-0.8-0.8-1.3-1.8-1.3-3.1
			c0-0.7,0.1-1.3,0.3-1.9c0.2-0.6,0.5-1.1,0.9-1.6c0.5-0.6,1.1-1,1.8-1.3c0.7-0.3,1.4-0.4,2.3-0.4c1,0,1.8,0.2,2.5,0.6
			c0.7,0.4,1.2,1,1.6,1.7l-2.9,1.1c-0.2-0.2-0.3-0.4-0.5-0.5c-0.2-0.1-0.4-0.2-0.7-0.2c-0.6,0-1,0.2-1.4,0.6c-0.4,0.4-0.5,1-0.5,1.6
			c0,0.6,0.2,1,0.5,1.3c0.3,0.3,0.8,0.5,1.3,0.5c0.1,0,0.2,0,0.2,0c0.1,0,0.2,0,0.2,0l0.2-0.9h-1.2l0.4-2h4.3L199.8,76z"/>
	</g>
	<g>
		<path class="st0" d="M201.1,77.1l1.7-9h3.3l-1.7,9H201.1z"/>
	</g>
	<g>
		<path class="st0" d="M211.2,77.3c-0.6,0-1.2-0.1-1.8-0.3c-0.5-0.2-1-0.4-1.4-0.8c-0.4-0.4-0.8-0.8-1-1.4c-0.2-0.6-0.4-1.1-0.4-1.8
			c0-0.7,0.1-1.3,0.3-1.9c0.2-0.6,0.5-1.1,0.9-1.6c0.5-0.6,1.1-1,1.8-1.3c0.7-0.3,1.4-0.5,2.2-0.5c1.4,0,2.5,0.4,3.3,1.2
			c0.8,0.8,1.3,1.8,1.3,3.1c0,0.7-0.1,1.3-0.3,1.9c-0.2,0.6-0.5,1.1-0.9,1.6c-0.5,0.6-1.1,1-1.8,1.3C212.7,77.2,212,77.3,211.2,77.3
			z M211.7,70.8c-0.5,0-0.9,0.2-1.3,0.5c-0.3,0.4-0.5,0.8-0.5,1.4c0,0.5,0.1,0.9,0.4,1.1c0.3,0.3,0.6,0.4,1.1,0.4
			c0.5,0,0.9-0.2,1.3-0.6c0.3-0.4,0.5-0.8,0.5-1.4c0-0.4-0.1-0.8-0.4-1.1C212.5,71,212.1,70.8,211.7,70.8z"/>
	</g>
	<g>
		<path class="st0" d="M221.2,77.1l1.7-9h6.2l-0.4,2.4h-2.9l-0.2,0.9h2.8l-0.4,2.3h-2.8l-0.2,1h3.2l-0.4,2.4H221.2z"/>
	</g>
	<g>
		<path class="st0" d="M233.4,77.1l1.7-9h3.5c1.3,0,2.3,0.2,3,0.7c0.7,0.5,1,1.2,1,2.2c0,1.1-0.4,1.9-1.1,2.5
			c-0.7,0.6-1.7,0.9-3,0.9h-1.3l-0.5,2.8H233.4z M237.6,71.9h0.2c0.5,0,0.8-0.1,1.1-0.2c0.2-0.1,0.3-0.4,0.3-0.7
			c0-0.2-0.1-0.4-0.3-0.5c-0.2-0.1-0.5-0.2-0.9-0.2h-0.2L237.6,71.9z"/>
	</g>
	<g>
		<path class="st0" d="M242.7,77.1l1.7-9h3.5c1.3,0,2.3,0.2,3,0.7c0.7,0.5,1,1.1,1,2c0,0.8-0.2,1.4-0.6,1.9c-0.4,0.5-0.9,0.8-1.6,1
			l1.3,3.5h-3.3l-1-3.3l-0.6,3.3H242.7z M246.8,72h0.2c0.5,0,0.9-0.1,1.1-0.2c0.2-0.2,0.3-0.4,0.3-0.8c0-0.3-0.1-0.5-0.3-0.6
			c-0.2-0.1-0.5-0.2-0.9-0.2h-0.2L246.8,72z"/>
	</g>
	<g>
		<path class="st0" d="M252,77.1l1.7-9h6.2l-0.4,2.4h-2.9l-0.2,0.9h2.8l-0.4,2.3h-2.8l-0.2,1h3.2l-0.5,2.4H252z M255.8,67.1l1.4-2.2
			h2l-2.3,2.2H255.8z"/>
	</g>
</g>
</svg>
